<svg width="83" height="62" viewBox="0 0 83 62" fill="none" xmlns="http://www.w3.org/2000/svg">
<path d="M39.9003 38.2465C44.9654 32.3764 44.3129 23.5116 38.4427 18.4464C32.5726 13.3812 23.7078 14.0337 18.6426 19.9039C13.5774 25.774 14.2299 34.6389 20.1001 39.704C25.9702 44.7692 34.8351 44.1167 39.9003 38.2465Z" fill="#BDC6D5"/>
<path d="M29.2751 11.2347C29.0428 11.2353 28.8127 11.1901 28.5979 11.1016C28.3831 11.0132 28.1878 10.8832 28.0233 10.7191C27.8588 10.5551 27.7283 10.3602 27.6393 10.1456C27.5503 9.93107 27.5044 9.70104 27.5044 9.46873V1.77069C27.5044 1.30107 27.691 0.850692 28.023 0.518623C28.3551 0.186554 28.8055 0 29.2751 0C29.7447 0 30.1951 0.186554 30.5272 0.518623C30.8593 0.850692 31.0458 1.30107 31.0458 1.77069V9.46873C31.0458 9.70104 31 9.93107 30.9109 10.1456C30.8219 10.3602 30.6914 10.5551 30.5269 10.7191C30.3624 10.8832 30.1672 11.0132 29.9524 11.1016C29.7376 11.1901 29.5074 11.2353 29.2751 11.2347Z" fill="#BDC6D5"/>
<path d="M9.46873 31.0459H1.77069C1.30107 31.0459 0.850692 30.8593 0.518623 30.5273C0.186554 30.1952 0 29.7448 0 29.2752C0 28.8056 0.186554 28.3552 0.518623 28.0231C0.850692 27.6911 1.30107 27.5045 1.77069 27.5045H9.46873C9.93835 27.5045 10.3887 27.6911 10.7208 28.0231C11.0529 28.3552 11.2394 28.8056 11.2394 29.2752C11.2394 29.7448 11.0529 30.1952 10.7208 30.5273C10.3887 30.8593 9.93835 31.0459 9.46873 31.0459Z" fill="#BDC6D5"/>
<path d="M15.2693 17.04C15.0368 17.0403 14.8067 16.9943 14.5922 16.9048C14.3777 16.8153 14.1832 16.684 14.0199 16.5186L8.57633 11.075C8.24499 10.7437 8.05884 10.2943 8.05884 9.82568C8.05884 9.35708 8.24499 8.90768 8.57633 8.57633C8.90768 8.24499 9.35708 8.05884 9.82568 8.05884C10.2943 8.05884 10.7437 8.24499 11.075 8.57633L16.5186 14.0199C16.7652 14.2675 16.9329 14.5825 17.0008 14.9253C17.0687 15.2681 17.0336 15.6233 16.9 15.9461C16.7665 16.269 16.5404 16.5452 16.2502 16.7398C15.96 16.9345 15.6187 17.0389 15.2693 17.04Z" fill="#BDC6D5"/>
<path d="M9.82569 50.4952C9.47627 50.4941 9.13498 50.3897 8.84479 50.195C8.5546 50.0004 8.32848 49.7242 8.19491 49.4013C8.06133 49.0785 8.02628 48.7233 8.09415 48.3805C8.16203 48.0377 8.3298 47.7227 8.57634 47.4751L14.0199 42.0315C14.3513 41.7002 14.8007 41.514 15.2693 41.514C15.7379 41.514 16.1873 41.7002 16.5186 42.0315C16.85 42.3629 17.0361 42.8123 17.0361 43.2809C17.0361 43.7495 16.85 44.1989 16.5186 44.5302L11.075 49.9738C10.9118 50.1392 10.7172 50.2705 10.5028 50.36C10.2883 50.4495 10.0581 50.4955 9.82569 50.4952Z" fill="#BDC6D5"/>
<path d="M43.281 17.04C42.9315 17.0389 42.5902 16.9345 42.3 16.7398C42.0099 16.5452 41.7837 16.269 41.6502 15.9461C41.5166 15.6233 41.4815 15.2681 41.5494 14.9253C41.6173 14.5825 41.7851 14.2675 42.0316 14.0199L47.4752 8.57633C47.6393 8.41227 47.834 8.28212 48.0484 8.19333C48.2628 8.10454 48.4925 8.05884 48.7245 8.05884C48.9566 8.05884 49.1863 8.10454 49.4007 8.19333C49.615 8.28212 49.8098 8.41227 49.9739 8.57633C50.1379 8.7404 50.2681 8.93518 50.3569 9.14954C50.4457 9.3639 50.4914 9.59366 50.4914 9.82568C50.4914 10.0577 50.4457 10.2875 50.3569 10.5018C50.2681 10.7162 50.1379 10.911 49.9739 11.075L44.5303 16.5186C44.367 16.684 44.1725 16.8153 43.958 16.9048C43.7435 16.9943 43.5134 17.0403 43.281 17.04Z" fill="#BDC6D5"/>
<path d="M68.3571 34.5403C68.3571 34.4181 68.3571 34.3054 68.3571 34.1833C68.2829 29.7161 66.4563 25.457 63.2709 22.3241C60.0856 19.1912 55.7967 17.4355 51.3289 17.4355C46.8611 17.4355 42.5722 19.1912 39.3869 22.3241C36.2015 25.457 34.3749 29.7161 34.3007 34.1833V34.2162C30.7006 34.4224 27.3215 36.0194 24.8766 38.67C22.4317 41.3207 21.1124 44.8175 21.1971 48.4225C21.2819 52.0275 22.764 55.4586 25.3307 57.9914C27.8973 60.5243 31.3477 61.9608 34.9535 61.9977H68.3571C70.1817 62.0314 71.9947 61.7012 73.6901 61.0263C75.3856 60.3514 76.9296 59.3454 78.2319 58.067C79.5341 56.7886 80.5685 55.2635 81.2747 53.5808C81.9808 51.8981 82.3445 50.0915 82.3445 48.2666C82.3445 46.4418 81.9808 44.6352 81.2747 42.9525C80.5685 41.2698 79.5341 39.7446 78.2319 38.4663C76.9296 37.1879 75.3856 36.1818 73.6901 35.5069C71.9947 34.832 70.1817 34.5018 68.3571 34.5356V34.5403Z" fill="#DDE3ED"/>
</svg>
